<svg xmlns="http://www.w3.org/2000/svg" fill="none" viewBox="0 0 70 70">
  <path fill="#A0D405" d="M23.322 32.99c0 .446.174.864.49 1.178l.589.59a4.14 4.14 0 0 0 2.945 1.22c1.114 0 2.16-.434 2.947-1.22l4.15-4.151a9.096 9.096 0 0 0 5.864 2.12h.004a9.124 9.124 0 0 0 6.489-2.692.832.832 0 1 0-1.179-1.178 7.47 7.47 0 0 1-5.31 2.204h-.003a7.448 7.448 0 0 1-5.3-2.196.834.834 0 0 0-1.18 0l-4.714 4.714c-.943.944-2.59.944-3.535 0l-.59-.59 10.018-10.016c.934-.935 1.822-.935 2.946-.935 1.203 0 2.703 0 4.125-1.422l2.357-2.358a.832.832 0 1 0-1.179-1.178L40.9 19.438c-.935.934-1.823.934-2.947.934-1.203 0-2.702 0-4.124 1.422L23.812 31.811c-.316.315-.49.733-.49 1.179ZM17.5 19.167c.919 0 1.666-.748 1.666-1.667 0-.92-.747-1.667-1.666-1.667-.92 0-1.667.748-1.667 1.667 0 .92.748 1.667 1.667 1.667ZM25.58 21.794l2.356 2.357a.83.83 0 0 0 1.179 0 .832.832 0 0 0 0-1.178l-2.357-2.357a.832.832 0 1 0-1.178 1.178ZM52.5 15.834c.918 0 1.666-.748 1.666-1.667 0-.92-.748-1.667-1.666-1.667-.919 0-1.667.748-1.667 1.667s.748 1.667 1.667 1.667ZM54.41 27.744c-1.353 1.354-1.818 3.56-2.268 5.694-.398 1.893-.81 3.852-1.814 4.855l-1.179 1.179a.834.834 0 0 0 1.18 1.178l1.178-1.178c1.353-1.354 1.817-3.559 2.266-5.691.4-1.895.813-3.854 1.816-4.858a.832.832 0 1 0-1.178-1.179Z"/>
  <path fill="#A0D405" d="M59.755 27.744 46.178 14.167l2.744-2.744a.832.832 0 1 0-1.178-1.179l-3.334 3.334a.832.832 0 0 0 0 1.178l14.167 14.166a.831.831 0 0 0 1.178 0 .832.832 0 0 0 0-1.178ZM40.9 34.757a.834.834 0 0 0-1.178 1.18l8.838 8.838c.65.65.65 1.707 0 2.357a1.671 1.671 0 0 1-2.358 0l-8.838-8.839a.832.832 0 1 0-1.178 1.179l11.196 11.195a1.668 1.668 0 0 1-2.358 2.358L34.418 42.418a.832.832 0 1 0-1.178 1.178l9.427 9.428c.65.65.65 1.707 0 2.357-.63.63-1.726.63-2.356 0l-1.18-1.179-7.66-7.659a.832.832 0 1 0-1.178 1.178l7.66 7.66c.315.316.489.734.489 1.18a1.668 1.668 0 0 1-2.845 1.177l-14.174-14.16c-2.161-2.162-2.63-4.886-3.044-7.29-.349-2.022-.678-3.932-1.956-5.21a.832.832 0 1 0-1.179 1.178c.905.904 1.177 2.485 1.492 4.316.433 2.516.973 5.649 3.508 8.184l14.174 14.161c.65.65 1.503.975 2.357.975.853 0 1.708-.326 2.357-.975a3.318 3.318 0 0 0 .914-1.708c1.221.59 2.812.34 3.8-.65a3.315 3.315 0 0 0 .914-1.708 3.338 3.338 0 0 0 3.8-.649c1.3-1.299 1.3-3.413 0-4.713l-.316-.317a3.323 3.323 0 0 0 1.495-.861c1.3-1.3 1.3-3.415 0-4.714l-8.84-8.84ZM25.59 16.91l-5-5a.832.832 0 1 0-1.179 1.18l4.41 4.41-13.577 13.578a.833.833 0 1 0 1.179 1.178l14.166-14.167a.832.832 0 0 0 0-1.178ZM30.496 58.179c-.464.243-1.256.272-1.97-.44-.715-.715-.709-1.546-.477-1.908a.832.832 0 0 0-1.291-1.039c-.65.65-1.71.65-2.357 0a1.67 1.67 0 0 1 0-2.357.827.827 0 0 0 .244-.59.834.834 0 0 0-1.422-.59l-.59.59c-.65.65-1.707.65-2.357 0a1.67 1.67 0 0 1 0-2.356l.59-.59a.833.833 0 0 0-1.007-1.31c-.453.261-1.25.23-1.94-.457-.73-.731-.727-1.542-.492-1.884a.834.834 0 0 0-1.371-.947c-.675.977-.656 2.668.685 4.01.529.527 1.104.842 1.67.993-.19.423-.29.886-.29 1.363a3.334 3.334 0 0 0 4.138 3.234 3.32 3.32 0 0 0 .963 2.07 3.336 3.336 0 0 0 3.056.901c.103.69.438 1.413 1.07 2.045.77.77 1.67 1.079 2.492 1.079.527 0 1.022-.128 1.43-.341a.833.833 0 1 0-.774-1.476Z"/>
</svg>