<svg xmlns="http://www.w3.org/2000/svg" fill="none" viewBox="0 0 70 70">
  <path fill="#A0D405" d="M53.548 43.871h-1.092a7.246 7.246 0 0 0 2.705-5.645V35a5.652 5.652 0 0 0-5.645-5.645H46.29c-.274 0-.542.026-.806.064V14.84h1.613V10H10v4.839h1.613v23.387H10v4.839h18.857l4.032 8.064h7.756V60H60v-9.677a6.46 6.46 0 0 0-6.452-6.452Zm-.949 3.561-3.273 1.404 2.234-3.352h.552l.487 1.948Zm-6.415-1.948h3.439l-1.72 2.578-1.72-2.578Zm.295 3.352-3.273-1.404.487-1.948h.552l2.234 3.352Zm7.07-10.61a5.654 5.654 0 0 1-5.646 5.645 5.652 5.652 0 0 1-5.645-5.645h3.773a5.293 5.293 0 0 0 3.767-1.56l.416-.417a5.31 5.31 0 0 0 3.335 1.907v.07Zm-38.71-8.871v7.258h10.804c.013.028.017.059.031.086l.763 1.527H13.226V14.839H43.87v15.068A5.646 5.646 0 0 0 40.645 35v3.226h-6.559l-2.501-4.69a3.306 3.306 0 0 0-5.456-.58v-3.601h-11.29Zm9.677 1.613V35h-8.064v-4.032h8.064Zm21.774 0h3.226A4.037 4.037 0 0 1 53.548 35v1.52a3.703 3.703 0 0 1-2.284-1.561l-.816-1.225-1.791 1.791a3.69 3.69 0 0 1-2.626 1.088h-3.773V35a4.037 4.037 0 0 1 4.032-4.032ZM11.613 11.613h33.87v1.613h-33.87v-1.613Zm0 29.839v-1.613h15.63l.807 1.613H11.613Zm24.194 8.064h-1.922L27.117 35.98a1.73 1.73 0 0 1-.181-.767v-.111a1.715 1.715 0 0 1 3.225-.807l5.645 10.584v4.638Zm-.861-9.677h5.886c.13.566.326 1.105.58 1.613h-5.605l-.861-1.613Zm1.72 3.226h5.843c.26.289.54.56.843.806h-6.255l-.43-.806Zm21.721 15.322h-3.226v-3.226h3.226v3.226Zm0-4.839h-3.226v-3.225h-1.613v8.064h-11.29v-8.87H37.42v-4.033h4.613l-.722 2.89 6.593 2.826 6.595-2.826-.72-2.879a4.84 4.84 0 0 1 4.61 4.828v3.225Z"/>
  <path fill="#A0D405" d="M26.13 22.903V21.29h-1.695a3.999 3.999 0 0 0-.59-1.413l1.201-1.202-1.14-1.14-1.202 1.201c-.422-.28-.9-.485-1.413-.59v-1.694h-1.613v1.694c-.514.105-.992.31-1.414.59l-1.202-1.201-1.14 1.14 1.201 1.202c-.28.422-.485.9-.59 1.413H14.84v1.613h1.694c.105.514.31.991.59 1.414l-1.201 1.202 1.14 1.14 1.202-1.202c.422.281.9.486 1.414.59v1.695h1.613v-1.694a4 4 0 0 0 1.413-.59l1.202 1.2 1.14-1.14-1.201-1.201a4 4 0 0 0 .59-1.414h1.694Zm-5.646 1.613a2.422 2.422 0 0 1-2.42-2.42 2.422 2.422 0 0 1 2.42-2.419 2.422 2.422 0 0 1 2.42 2.42 2.422 2.422 0 0 1-2.42 2.42ZM34.625 18.065h2.795v-1.613h-3.658l-3.226 4.838h-2.794v1.613H31.4l3.226-4.838ZM42.258 16.452h-3.226v1.613h3.226v-1.613ZM32.58 24.516h-4.838v4.839h4.839v-4.839Zm-1.612 3.226h-1.613v-1.613h1.613v1.613ZM37.42 26.129h-3.227v1.613h3.226v-1.613ZM42.258 26.129h-3.226v1.613h3.226v-1.613Z"/>
</svg>