<svg xmlns="http://www.w3.org/2000/svg" fill="none" viewBox="0 0 70 70">
  <path fill="#A0D405" d="M20.833 33.333h2.5a.834.834 0 0 0 0-1.666h-2.5a.834.834 0 0 0 0 1.666ZM20.833 23.333H27.5a.834.834 0 0 0 0-1.666h-6.667a.834.834 0 0 0 0 1.666ZM35.834 31.667H27.5a.834.834 0 0 0 0 1.666h8.334a.834.834 0 0 0 0-1.666Z"/>
  <path fill="#A0D405" d="M35 46.667H15.834c-1.425 0-2.5-1.075-2.5-2.5v-25a.834.834 0 0 0-1.667 0v25c0 2.336 1.83 4.166 4.167 4.166H35a.834.834 0 0 0 0-1.666Z"/>
  <path fill="#A0D405" d="M20.833 28.333h15a.834.834 0 0 0 0-1.666h-15a.834.834 0 0 0 0 1.666ZM43.326 37.388a.834.834 0 0 0-.826-.721H20.833A.834.834 0 0 0 20 37.5c0 2.093 1.95 5.833 5.833 5.833h10.913l1.591 15.917a.834.834 0 0 0 1.659-.167l-1.667-16.666a.833.833 0 0 0-.83-.75h-9.166v-3.334h13.44l2.401 17.613a.832.832 0 1 0 1.652-.225l-2.5-18.333Zm-16.66 4.279h-.833c-2.331 0-3.615-1.971-4.022-3.334h4.856v3.334ZM34.167 23.333a.834.834 0 0 0 0-1.666h-3.334a.834.834 0 0 0 0 1.666h3.334ZM45 25h-.834a.834.834 0 0 0 0 1.667H45A.834.834 0 0 0 45 25ZM50.888 36.678c-.435-.001-.821.29-.88.72l-2.5 18.323a.834.834 0 0 0 1.651.225l2.401-17.594c2.878.072 4.846.619 5.856 1.627.617.616.918 1.441.918 2.521v13.333a.834.834 0 0 0 1.666 0V42.5c0-1.524-.473-2.77-1.407-3.7-1.43-1.428-3.95-2.122-7.705-2.122Z"/>
  <path fill="#A0D405" d="M59.167 11.667H35.833v-.834a.834.834 0 0 0-1.666 0v.834H10.833A.834.834 0 0 0 10 12.5v3.333c0 .46.373.834.833.834h43.334a.834.834 0 0 0 0-1.667h-42.5v-1.667h46.666V15H57.5a.834.834 0 0 0-.833.833v20a.834.834 0 0 0 1.666 0V16.667h.834c.46 0 .833-.374.833-.834V12.5a.833.833 0 0 0-.833-.833ZM54.166 46.667a.834.834 0 0 0-.833.833v11.667a.834.834 0 0 0 1.667 0V47.5a.834.834 0 0 0-.834-.833ZM48.333 38.333c0-.919-.747-1.666-1.666-1.666-.92 0-1.667.747-1.667 1.666 0 .614.337 1.146.833 1.435v6.065a.834.834 0 0 0 1.667 0v-6.065c.496-.289.833-.82.833-1.435Z"/>
  <path fill="#A0D405" d="M49.167 25h-.834a.834.834 0 0 0 0 1.667h.834a.834.834 0 0 0 0-1.667Z"/>
  <path fill="#A0D405" d="M48.334 18.333H45c-2.757 0-5 2.243-5 5v.224A1.667 1.667 0 0 0 39.167 25v1.667c0 .628.35 1.177.866 1.46.158 1.602.855 3.012.889 3.079.755 1.51 1.897 3.794 5.745 3.794s4.99-2.283 5.746-3.794c.033-.067.73-1.477.888-3.078.516-.284.866-.833.866-1.461V25c0-.616-.336-1.154-.833-1.442v-.225c0-2.757-2.243-5-5-5Zm4.166 8.334a.834.834 0 0 0-.833.833c0 1.442-.738 2.947-.746 2.96-.867 1.736-1.632 2.873-4.254 2.873s-3.387-1.137-4.254-2.871c-.008-.015-.746-1.52-.746-2.962a.834.834 0 0 0-.833-.833V25c.46 0 .833-.373.833-.833v-.834A3.337 3.337 0 0 1 45 20h3.334a3.337 3.337 0 0 1 3.333 3.333v.834c0 .46.373.833.833.833v1.667Z"/>
</svg>