<svg xmlns="http://www.w3.org/2000/svg" fill="none" viewBox="0 0 70 70">
  <path fill="#A0D405" d="M58.94 56.936H11.06a1.06 1.06 0 0 1 0-2.119h47.88a1.06 1.06 0 0 1 0 2.119Zm-1.942-4.828a1.06 1.06 0 0 1-1.059-1.06V27.643H29.564a1.06 1.06 0 0 1 0-2.118h27.434c.585 0 1.06.474 1.06 1.059v24.466a1.06 1.06 0 0 1-1.06 1.059Zm-36.789 0a1.06 1.06 0 0 1-1.059-1.06V33.696a1.06 1.06 0 0 1 2.119 0v17.354a1.06 1.06 0 0 1-1.06 1.059ZM52.498 50h-4.314a1.06 1.06 0 0 1-1.06-1.06v-6.16c0-.586.475-1.06 1.06-1.06h4.314c.585 0 1.06.474 1.06 1.06v6.16a1.06 1.06 0 0 1-1.06 1.06Zm-3.255-2.119h2.196V43.84h-2.196v4.042ZM43.853 50h-4.315a1.06 1.06 0 0 1-1.059-1.059v-6.16c0-.586.474-1.06 1.06-1.06h4.313c.585 0 1.06.474 1.06 1.06v6.16a1.06 1.06 0 0 1-1.06 1.06Zm-3.256-2.118h2.196V43.84h-2.196v4.042ZM35.207 50h-4.314a1.06 1.06 0 0 1-1.06-1.059v-6.16c0-.586.475-1.06 1.06-1.06h4.314c.585 0 1.06.474 1.06 1.06v6.16a1.06 1.06 0 0 1-1.06 1.06Zm-3.255-2.118h2.196V43.84h-2.196v4.042Zm-16.428-2.248c-.344 0-.683-.168-.886-.478a6.613 6.613 0 0 1-1.082-3.352C11.403 40.658 10 38.379 10 35.916c0-2.46 1.402-4.741 3.556-5.887a6.668 6.668 0 0 1 6.653-6.372 6.668 6.668 0 0 1 6.654 6.372c2.153 1.146 3.556 3.426 3.556 5.887 0 2.462-1.403 4.742-3.557 5.887a6.617 6.617 0 0 1-1.073 3.338 1.06 1.06 0 0 1-1.774-1.157 4.504 4.504 0 0 0 .724-2.78 1.06 1.06 0 0 1 .669-1.059c1.73-.68 2.892-2.38 2.892-4.229 0-1.848-1.162-3.548-2.892-4.228a1.06 1.06 0 0 1-.67-1.059 4.546 4.546 0 0 0-4.53-4.854 4.546 4.546 0 0 0-4.528 4.853 1.06 1.06 0 0 1-.67 1.06c-1.73.68-2.892 2.38-2.892 4.228 0 1.849 1.163 3.548 2.893 4.23.43.168.7.597.669 1.058a4.504 4.504 0 0 0 .73 2.789 1.06 1.06 0 0 1-.886 1.64Zm36.974-6.712h-4.314a1.06 1.06 0 0 1-1.06-1.06v-6.16c0-.585.475-1.06 1.06-1.06h4.314c.585 0 1.06.475 1.06 1.06v6.16a1.06 1.06 0 0 1-1.06 1.06Zm-3.255-2.118h2.196V32.76h-2.196v4.043Zm-5.39 2.118h-4.315a1.06 1.06 0 0 1-1.059-1.06v-6.16c0-.585.474-1.06 1.06-1.06h4.313c.585 0 1.06.475 1.06 1.06v6.16a1.06 1.06 0 0 1-1.06 1.06Zm-3.256-2.118h2.196V32.76h-2.196v4.043Zm-5.39 2.118H33.2a1.06 1.06 0 0 1 0-2.118h.947V32.76H33.2a1.06 1.06 0 0 1 0-2.118h2.006c.585 0 1.06.474 1.06 1.059v6.16a1.06 1.06 0 0 1-1.06 1.06Zm18.681-15.31a1.06 1.06 0 0 1-1.059-1.058v-7.435H37.774v7.435a1.06 1.06 0 1 1-2.118 0v-8.494c0-.585.474-1.059 1.059-1.059h17.173c.585 0 1.06.474 1.06 1.06v8.493c0 .585-.475 1.059-1.06 1.059Zm-4.406-1.723a1.06 1.06 0 0 1-1.06-1.06v-2.06a1.06 1.06 0 0 1 2.12 0v2.06a1.06 1.06 0 0 1-1.06 1.06Zm-4.18 0a1.06 1.06 0 0 1-1.06-1.06v-2.06a1.06 1.06 0 0 1 2.119 0v2.06a1.06 1.06 0 0 1-1.06 1.06Zm-4.18 0a1.06 1.06 0 0 1-1.06-1.06v-2.06a1.06 1.06 0 1 1 2.118 0v2.06a1.06 1.06 0 0 1-1.059 1.06Z"/>
</svg>