<svg xmlns="http://www.w3.org/2000/svg" fill="none" viewBox="0 0 73 70">
  <path fill="#A0D405" stroke="#A0D405" d="M28.445 53.442a.41.41 0 0 1-.022-.82l15.575-.82a.41.41 0 0 1 .043.82l-15.574.82h-.022Zm0 2.46a.41.41 0 0 1-.022-.82l15.575-.82a.408.408 0 0 1 .43.388.41.41 0 0 1-.387.431l-15.574.82h-.022Zm14.755-4.92H29.265a.41.41 0 0 1-.41-.41v-2.54c-4.111-2.57-6.558-6.965-6.558-11.805 0-7.685 6.251-13.937 13.936-13.937 7.683 0 13.936 6.252 13.936 13.937 0 4.84-2.449 9.236-6.559 11.805v2.54a.41.41 0 0 1-.41.41Zm-13.526-.82h13.117v-2.36a.408.408 0 0 1 .198-.35c3.982-2.4 6.36-6.597 6.36-11.226 0-7.232-5.884-13.116-13.116-13.116-7.232 0-13.116 5.884-13.116 13.116 0 4.628 2.377 8.824 6.36 11.226a.407.407 0 0 1 .198.35v2.36ZM36.233 60c-3.087 0-4.017-1.79-4.056-1.866a.41.41 0 0 1 .732-.37c.032.062.776 1.416 3.324 1.416 2.55 0 3.293-1.358 3.323-1.417a.412.412 0 0 1 .551-.176c.2.103.282.346.181.547C40.25 58.21 39.32 60 36.233 60ZM18.608 36.636H10.41a.41.41 0 1 1 0-.82h8.198a.409.409 0 0 1 .29.7.41.41 0 0 1-.29.12Zm43.447 0h-8.197a.408.408 0 0 1-.38-.567.41.41 0 0 1 .38-.252h8.197a.41.41 0 0 1 0 .82ZM13.87 49.548a.41.41 0 0 1-.205-.766l7.101-4.098a.41.41 0 0 1 .41.71l-7.101 4.1a.413.413 0 0 1-.205.054Zm37.629-21.724a.41.41 0 0 1-.206-.765l7.098-4.1a.408.408 0 0 1 .6.462.41.41 0 0 1-.19.25l-7.098 4.098a.414.414 0 0 1-.204.055Zm-6.451-6.451a.406.406 0 0 1-.326-.16.41.41 0 0 1-.03-.455l4.097-7.1a.408.408 0 0 1 .751.1.41.41 0 0 1-.041.31l-4.098 7.1a.408.408 0 0 1-.353.205Zm-8.813-2.363a.41.41 0 0 1-.41-.41v-8.197a.41.41 0 0 1 .82 0V18.6a.41.41 0 0 1-.41.41Zm-8.812 2.361a.408.408 0 0 1-.355-.205l-4.099-7.098a.41.41 0 1 1 .71-.41l4.098 7.098a.408.408 0 0 1-.354.615Zm31.175 28.175a.41.41 0 0 1-.205-.054l-7.1-4.1a.409.409 0 0 1-.15-.56.41.41 0 0 1 .56-.15l7.1 4.099a.411.411 0 0 1-.205.765ZM20.97 27.821a.41.41 0 0 1-.205-.055l-7.099-4.098a.41.41 0 1 1 .41-.71l7.099 4.098a.41.41 0 0 1-.205.765Z"/>
  <path fill="#A0D405" stroke="#A0D405" d="M34.183 44.423a2.447 2.447 0 0 1-1.739-.718 2.462 2.462 0 0 1 .001-3.479.409.409 0 1 1 .58.58c-.64.64-.64 1.68-.001 2.319a1.644 1.644 0 0 0 2.32 0 1.63 1.63 0 0 0 .48-1.134c.003-.226.177-.419.416-.404a.409.409 0 0 1 .404.415 2.444 2.444 0 0 1-.72 1.702c-.48.48-1.111.72-1.741.72Zm-2.458-10.528a2.462 2.462 0 0 1-2.46-2.458 2.462 2.462 0 0 1 4.093-1.842.41.41 0 1 1-.544.613 1.642 1.642 0 0 0-2.728 1.229c0 .903.735 1.638 1.64 1.638a.41.41 0 1 1 0 .82Zm-2.542 4.688a.42.42 0 0 1-.164-.033 1.64 1.64 0 0 1 .657-3.143.41.41 0 1 1 0 .82.821.821 0 0 0-.33 1.57.41.41 0 0 1-.163.786Z"/>
  <path fill="#A0D405" stroke="#A0D405" d="M29.676 36.226a2.05 2.05 0 0 1-2.049-2.047c0-1.275 1.214-2.27 2.48-2.007a.41.41 0 1 1-.169.803c-.761-.157-1.491.439-1.491 1.204a1.23 1.23 0 0 0 1.23 1.228.41.41 0 1 1 0 .82Zm4.919-4.918a2.05 2.05 0 0 1-2.05-2.048c0-1.13.92-2.051 2.05-2.051s2.05.92 2.05 2.05a.41.41 0 0 1-.82 0c0-.678-.552-1.23-1.23-1.23a1.23 1.23 0 0 0 0 2.46.408.408 0 0 1 .41.409.41.41 0 0 1-.41.41Zm-2.863 11.478a3.3 3.3 0 0 1-2.326-.961 3.284 3.284 0 0 1 2.318-5.6h.001c.874 0 1.698.34 2.32.962a.411.411 0 0 1-.29.7.41.41 0 0 1-.29-.12 2.445 2.445 0 0 0-1.74-.722 2.463 2.463 0 0 0-1.739 4.2 2.468 2.468 0 0 0 2.12.693c.22-.03.434.118.469.341a.411.411 0 0 1-.342.469 3.299 3.299 0 0 1-.501.038Zm6.553 1.638c-.63 0-1.26-.24-1.74-.72a2.448 2.448 0 0 1-.72-1.702.411.411 0 0 1 .404-.415.405.405 0 0 1 .416.404c.005.427.176.83.48 1.135a1.643 1.643 0 0 0 2.32-.001c.638-.64.638-1.68 0-2.32a.41.41 0 1 1 .58-.579c.958.96.958 2.52 0 3.478-.48.48-1.11.72-1.74.72Zm2.458-10.529a.41.41 0 0 1 0-.82 1.64 1.64 0 0 0 1.64-1.638 1.641 1.641 0 0 0-2.729-1.23.41.41 0 0 1-.544-.612 2.462 2.462 0 0 1 4.092 1.842 2.461 2.461 0 0 1-2.46 2.458Zm2.542 4.688a.408.408 0 0 1-.409-.402.408.408 0 0 1 .246-.384.817.817 0 0 0 .49-.75.82.82 0 0 0-.82-.82.41.41 0 0 1 0-.82 1.641 1.641 0 0 1 .657 3.143.421.421 0 0 1-.163.033Z"/>
  <path fill="#A0D405" stroke="#A0D405" d="M42.792 36.227a.41.41 0 0 1 0-.82c.679 0 1.23-.551 1.23-1.228 0-.766-.729-1.364-1.491-1.204a.408.408 0 0 1-.427-.626.41.41 0 0 1 .259-.176c1.268-.263 2.478.732 2.478 2.006a2.05 2.05 0 0 1-2.05 2.047Zm-4.919-4.92a.41.41 0 0 1 0-.819 1.23 1.23 0 1 0-1.229-1.228.408.408 0 0 1-.567.379.408.408 0 0 1-.253-.379c0-1.13.92-2.051 2.05-2.051s2.049.92 2.049 2.051a2.05 2.05 0 0 1-2.05 2.048Zm2.863 11.48c-.167 0-.334-.014-.5-.039a.412.412 0 0 1-.342-.468.413.413 0 0 1 .469-.342 2.46 2.46 0 1 0-1.36-4.171.41.41 0 1 1-.579-.58 3.261 3.261 0 0 1 2.32-.962 3.283 3.283 0 0 1 2.319 5.6 3.299 3.299 0 0 1-2.327.961Zm.825 15.574H30.904a.41.41 0 0 1-.29-.12l-1.64-1.64a.409.409 0 0 1-.12-.29v-5.738a.41.41 0 0 1 .41-.41H43.2a.41.41 0 0 1 .41.41v5.738a.41.41 0 0 1-.12.29l-1.64 1.64a.41.41 0 0 1-.29.12Zm-10.487-.82H41.39l1.4-1.4v-5.158H29.673v5.158l1.4 1.4Z"/>
  <path fill="#A0D405" stroke="#A0D405" d="M36.234 42.407a.412.412 0 0 1-.41-.41V29.26a.41.41 0 1 1 .82 0v12.737a.41.41 0 0 1-.41.41Z"/>
  <path fill="#A0D405" stroke="#A0D405" d="M37.462 39.506c-1.062 0-1.574-1.004-1.594-1.047a.41.41 0 1 1 .732-.368c.005.009.313.595.862.595a.41.41 0 0 1 0 .82Z"/>
  <path fill="#A0D405" stroke="#A0D405" d="M35.003 39.505a.408.408 0 0 1-.41-.41.408.408 0 0 1 .41-.41c.549 0 .858-.588.861-.594a.409.409 0 0 1 .733.367c-.021.044-.533 1.047-1.594 1.047Zm3.28-4.918c-1.945 0-2.458-1.34-2.458-2.05a.41.41 0 0 1 .82-.003c.002.126.068 1.233 1.637 1.233a.41.41 0 0 1 0 .82Z"/>
  <path fill="#A0D405" stroke="#A0D405" d="M34.182 34.587a.408.408 0 0 1-.41-.41.408.408 0 0 1 .41-.41c1.57 0 1.635-1.107 1.638-1.233.004-.225.178-.422.413-.404a.408.408 0 0 1 .406.408c0 .708-.513 2.049-2.457 2.049Z"/>
</svg>