<svg xmlns="http://www.w3.org/2000/svg" fill="none" viewBox="0 0 70 70">
  <path fill="#A0D405" d="M23.3223 32.9899c0 .4458.1741.8642.4891 1.1783l.5892.5892c.7875.7866 1.8325 1.22 2.9458 1.22 1.1133 0 2.1591-.4333 2.9466-1.22l4.1509-4.1508c1.6441 1.3733 3.6966 2.1207 5.8633 2.1207h.0042c2.4491-.0016 4.7542-.9575 6.4883-2.6924.3259-.3258.3259-.8533 0-1.1783-.3259-.3259-.8525-.3259-1.1783 0-1.42 1.42-3.3066 2.2033-5.3108 2.2042h-.0025c-2.0026 0-3.885-.78-5.3009-2.1958-.3258-.325-.8533-.325-1.1783 0l-4.715 4.7141c-.9433.9441-2.5908.9441-3.5349 0l-.5892-.5892 10.0174-10.0174c.9342-.9341 1.8217-.9341 2.9458-.9341 1.2033 0 2.7025 0 4.125-1.4225l2.3566-2.3575c.3258-.3258.3258-.8533 0-1.1783-.325-.3259-.8525-.3259-1.1783 0l-2.3566 2.3575c-.935.9342-1.8225.9342-2.9467.9342-1.2033 0-2.7016 0-4.1241 1.4224L23.8122 31.8107c-.3158.3151-.4899.7334-.4899 1.1792ZM17.4997 19.1667c.9191 0 1.6667-.7474 1.6667-1.6666 0-.9192-.7475-1.6667-1.6667-1.6667-.9191 0-1.6667.7474-1.6667 1.6667 0 .9192.7476 1.6666 1.6667 1.6666ZM25.5797 21.7942l2.3566 2.3566c.1633.1634.3767.2442.5892.2442.2133 0 .4266-.0809.5891-.2442.3259-.3249.3259-.8525 0-1.1783l-2.3566-2.3566c-.325-.3258-.8525-.3258-1.1783 0-.325.325-.325.8525 0 1.1783ZM52.4997 15.8335c.9183 0 1.6667-.7475 1.6667-1.6667 0-.9191-.7484-1.6667-1.6667-1.6667-.9184 0-1.6667.7475-1.6667 1.6667 0 .9191.7483 1.6667 1.6667 1.6667ZM54.4107 27.7442c-1.3542 1.3541-1.8191 3.5599-2.2683 5.6933-.3984 1.8933-.8109 3.8525-1.8142 4.8558l-1.1792 1.1783c-.325.3259-.325.8533 0 1.1783.1633.1634.3767.2441.5901.2441.2125 0 .4258-.0808.5891-.2441l1.1783-1.1783c1.3533-1.3533 1.8175-3.5583 2.2667-5.6908.3991-1.895.8125-3.8541 1.8158-4.8582.3259-.325.3259-.8526 0-1.1784-.3258-.3259-.8524-.3259-1.1783 0Z"/>
  <path fill="#A0D405" d="M59.7553 27.7442 46.1779 14.1668l2.7441-2.7442c.3259-.3258.3259-.8525 0-1.1783-.3259-.32574-.8525-.32574-1.1783 0l-3.3333 3.3333c-.3259.3259-.3259.8525 0 1.1783L58.577 28.9225c.1625.1625.3759.2441.5892.2441.2132 0 .4266-.0816.5891-.2441.3258-.3259.3258-.8525 0-1.1783ZM40.8999 34.7574c-.3258-.325-.8525-.325-1.1783 0-.3258.3258-.3258.8533 0 1.1792l8.8383 8.8383c.65.65.65 1.7075 0 2.3575-.6483.6483-1.7066.6491-2.3575 0l-8.8383-8.8391c-.3259-.3259-.8533-.3259-1.1783 0-.3259.3259-.3259.8533 0 1.1783l11.1957 11.1957c.65.65.65 1.7075 0 2.3566-.65.6491-1.7066.6509-2.3575.0008L34.4183 42.4181c-.3258-.3258-.8533-.3258-1.1783 0-.3258.325-.3258.8526 0 1.1784l9.4275 9.4274c.65.65.65 1.7075 0 2.3575-.63.63-1.7267.63-2.3566-.0008l-1.1792-1.1783h-.0009l-7.6591-7.6591c-.3259-.3258-.8533-.3258-1.1783 0-.3258.325-.3258.8525 0 1.1783l7.6599 7.6599c.315.3151.4884.7333.4884 1.1792 0 .445-.1734.8634-.4884 1.1783-.6484.6484-1.7067.65-2.3566-.0009L21.4226 43.5773c-2.1608-2.1608-2.6299-4.8849-3.0441-7.2891-.3483-2.0224-.6775-3.9325-1.9558-5.2108-.3259-.3259-.8526-.3259-1.1783 0-.3258.3259-.3259.8525 0 1.1783.9042.9042 1.1766 2.485 1.4917 4.3158.4333 2.5167.9733 5.6491 3.5082 8.1841l14.174 14.1616c.6492.6492 1.5026.975 2.3567.975.8533-.0008 1.7075-.3258 2.3566-.975.4733-.4741.7875-1.065.9141-1.7083 1.2217.5892 2.8125.3401 3.8-.6491.4741-.4741.7875-1.0658.9142-1.7091 1.2391.595 2.7741.3775 3.7999-.6484 1.3-1.2991 1.3-3.4133 0-4.7133l-.3158-.3167c.5475-.1458 1.0658-.4333 1.495-.8616 1.2991-1.3 1.2991-3.415 0-4.7141l-8.8391-8.8392ZM25.5892 16.9109l-4.9999-5c-.3258-.3259-.8526-.3259-1.1783 0-.3259.3258-.3259.8525 0 1.1783L23.8218 17.5 10.2443 31.0775c-.32574.3258-.32574.8525 0 1.1783.1625.1625.3759.2441.5892.2441.2133 0 .4266-.0816.5891-.2441l14.1666-14.1665c.3259-.3259.3259-.8526 0-1.1784ZM30.4963 58.1789c-.4642.2433-1.2567.2724-1.9708-.4401-.7142-.715-.7083-1.5458-.4767-1.9075.23-.3583.1533-.8316-.1792-1.0991-.3308-.2675-.8099-.2425-1.1116.06-.6509.65-1.7092.6491-2.3575 0-.6491-.65-.6491-1.7075 0-2.3575.1634-.1625.2441-.3759.2441-.5892 0-.2133-.0808-.4259-.2441-.5891-.325-.325-.8525-.325-1.1783 0l-.5892.5891c-.6491.65-1.7075.65-2.3566 0-.6491-.65-.6491-1.7075 0-2.3566l.5892-.5892c.2966-.2958.3266-.7658.0716-1.0974-.2549-.3316-.7174-.4225-1.0783-.2134-.4533.2616-1.2508.2309-1.9391-.4566-.7316-.7317-.7283-1.5425-.4925-1.8842.2616-.3783.1658-.8974-.2125-1.1592-.3792-.2625-.8974-.1667-1.1592.2125-.6741.9767-.6558 2.6675.6859 4.0092.5283.5275 1.1033.8425 1.67.9933-.1901.4234-.2901.8859-.2901 1.3634 0 .89.3467 1.7275.9767 2.3566.855.8559 2.0641 1.1484 3.1616.8776.065.7549.3858 1.4924.9625 2.0691.8292.8283 1.9875 1.1283 3.0558.9016.1033.6901.4375 1.4125 1.0692 2.045.7708.7701 1.6707 1.0784 2.4924 1.0784.5276 0 1.0225-.1276 1.43-.3409s.565-.7167.3509-1.125c-.2134-.4067-.7184-.565-1.1242-.3508Z"/>
</svg>