<svg xmlns="http://www.w3.org/2000/svg" fill="none" viewBox="0 0 70 70">
  <path fill="#A0D405" d="M53.5484 43.871h-1.0928c1.6476-1.3315 2.7057-3.3662 2.7057-5.6452V35c0-3.1121-2.5331-5.6452-5.6452-5.6452h-3.2258c-.2742 0-.5419.0267-.8064.0646V14.8387h1.6129V10H10v4.8387h1.6129v23.3871H10v4.8387h18.8565l4.0322 8.0645h7.7565V60H60v-9.6774c0-3.5573-2.8944-6.4516-6.4516-6.4516Zm-.9492 3.5613-3.2734 1.4032 2.2347-3.3516h.5516l.4871 1.9484Zm-6.4153-1.9484h3.4387l-1.7194 2.5782-1.7193-2.5782Zm.2951 3.3516-3.2734-1.4032.4879-1.9484h.5517l2.2338 3.3516Zm7.0702-10.6097c-.0008 3.1121-2.5339 5.6452-5.646 5.6452s-5.6451-2.5331-5.6451-5.6452h3.7725c1.4234 0 2.7613-.5548 3.767-1.5605l.4161-.4161c.8371 1.0355 2.0274 1.7073 3.3355 1.9073v.0693Zm-38.7105-8.871v7.2581h10.804c.0129.0282.0178.0589.0315.0863l.7629 1.5266H13.2258V14.8387H43.871v15.0686c-1.9041.908-3.2258 2.8467-3.2258 5.0927v3.2258h-6.5589l-2.5016-4.6903c-.5799-1.0863-1.7049-1.7613-2.9355-1.7613-1.0121 0-1.9097.4645-2.5202 1.1806v-3.6H14.8387Zm9.6774 1.6129V35h-8.0645v-4.0323h8.0645Zm21.7742 0h3.2258c2.2234 0 4.0323 1.8089 4.0323 4.0323v1.5194c-.9242-.2049-1.746-.7541-2.2839-1.5605l-.8169-1.225-1.7911 1.7911c-.7017.7016-1.6339 1.0879-2.6259 1.0879h-3.7725V35c0-2.2234 1.8088-4.0323 4.0322-4.0323ZM11.6129 11.6129h33.871v1.6129h-33.871v-1.6129Zm0 29.8387v-1.6129h15.6306l.8065 1.6129H11.6129Zm24.1936 8.0645h-1.921L27.1169 35.979c-.1185-.2379-.1814-.5032-.1814-.7669v-.1113c0-.9452.7685-1.7137 1.7137-1.7137.6339 0 1.2137.3484 1.5121.9073l5.6452 10.5838v4.6379Zm-.8605-9.6774h5.8863c.129.5661.3258 1.1057.579 1.6129h-5.6048l-.8605-1.6129Zm1.7209 3.2258h5.842c.2605.2895.5395.5613.8427.8065h-6.2548l-.4299-.8065Zm21.7202 15.3226h-3.2258v-3.2258h3.2258v3.2258Zm0-4.8387h-3.2258v-3.2258h-1.6129v8.0645H42.2581v-8.871h-4.8387v-4.0322h4.6129l-.7226 2.8903L47.9032 51.2l6.5944-2.8258-.7202-2.879c2.5613.1209 4.6097 2.2363 4.6097 4.8274v3.2258Z"/>
  <path fill="#A0D405" d="M26.1292 22.9033v-1.6129h-1.6944c-.1048-.5137-.3096-.9912-.5903-1.4137l1.2016-1.2017-1.1403-1.1403-1.2016 1.2016c-.4226-.2806-.9-.4854-1.4137-.5903v-1.6943h-1.6129v1.6943c-.5137.1049-.9912.3097-1.4137.5903l-1.2016-1.2016-1.1404 1.1403 1.2016 1.2017c-.2806.4225-.4854.9-.5903 1.4137h-1.6943v1.6129h1.6943c.1049.5137.3097.9911.5903 1.4137l-1.2016 1.2016 1.1404 1.1403 1.2016-1.2016c.4225.2807.9.4855 1.4137.5903v1.6944h1.6129v-1.6944c.5137-.1048.9911-.3096 1.4137-.5903l1.2016 1.2016 1.1403-1.1403-1.2016-1.2016c.2807-.4226.4855-.9.5903-1.4137h1.6944Zm-5.6452 1.6129c-1.3338 0-2.4193-1.0855-2.4193-2.4194 0-1.3338 1.0855-2.4193 2.4193-2.4193 1.3339 0 2.4194 1.0855 2.4194 2.4193 0 1.3339-1.0855 2.4194-2.4194 2.4194ZM34.6253 18.0646h2.7943v-1.6129h-3.6573l-3.2258 4.8387h-2.7943v1.6129h3.6572l3.2259-4.8387ZM42.258 16.4517h-3.2258v1.6129h3.2258v-1.6129ZM32.5809 24.5161h-4.8387v4.8387h4.8387v-4.8387Zm-1.6129 3.2258h-1.6129V26.129h1.6129v1.6129ZM37.4192 26.129h-3.2258v1.6129h3.2258V26.129ZM42.258 26.129h-3.2258v1.6129h3.2258V26.129Z"/>
</svg>