<svg xmlns="http://www.w3.org/2000/svg" fill="none" viewBox="0 0 70 70">
  <path fill="#A0D405" d="M20.8333 33.3333h2.5c.46 0 .8333-.3733.8333-.8333 0-.4599-.3733-.8333-.8333-.8333h-2.5c-.46 0-.8333.3734-.8333.8333 0 .46.3733.8333.8333.8333ZM20.8333 23.3333H27.5c.46 0 .8333-.3733.8333-.8333 0-.4599-.3733-.8333-.8333-.8333h-6.6667c-.46 0-.8333.3734-.8333.8333 0 .46.3733.8333.8333.8333ZM35.8336 31.6667h-8.3333c-.46 0-.8333.3734-.8333.8333 0 .46.3733.8333.8333.8333h8.3333c.46 0 .8333-.3733.8333-.8333 0-.4599-.3732-.8333-.8333-.8333Z"/>
  <path fill="#A0D405" d="M35.0003 46.6667H15.8336c-1.425 0-2.5-1.075-2.5-2.5v-25c0-.46-.3733-.8333-.8333-.8333s-.8333.3733-.8333.8333v25c0 2.3366 1.83 4.1667 4.1667 4.1667h19.1666c.46 0 .8333-.3734.8333-.8333 0-.46-.3733-.8334-.8333-.8334Z"/>
  <path fill="#A0D405" d="M20.8333 28.3333h15c.46 0 .8333-.3733.8333-.8333 0-.4599-.3733-.8333-.8333-.8333h-15c-.46 0-.8333.3734-.8333.8333 0 .46.3733.8333.8333.8333ZM43.3259 37.3875c-.0567-.4124-.4092-.7208-.8259-.7208H20.8333c-.46 0-.8333.3734-.8333.8334 0 2.0933 1.9491 5.8333 5.8333 5.8333h10.9125l1.5917 15.9167c.0434.4292.405.7499.8283.7499.0276 0 .0559-.0016.0842-.0041.4575-.0458.7917-.4542.7458-.9125l-1.6667-16.6667c-.0425-.4259-.4009-.75-.8292-.75h-9.1667v-3.3333h13.4393l2.4016 17.6125c.0616.4566.4842.7775.9384.7133.4559-.0625.775-.4825.7134-.9383l-2.5-18.3334Zm-16.6592 4.2792h-.8333c-2.3316 0-3.615-1.9708-4.0225-3.3333h4.8559l-.0001 3.3333ZM34.1666 23.3333c.46 0 .8333-.3733.8333-.8333 0-.4599-.3733-.8333-.8333-.8333h-3.3333c-.46 0-.8333.3734-.8333.8333 0 .46.3733.8333.8333.8333h3.3333ZM44.9996 25h-.8333c-.46 0-.8333.3733-.8333.8333s.3733.8333.8333.8333h.8333c.46 0 .8333-.3733.8333-.8333S45.4596 25 44.9996 25ZM50.8876 36.6775c-.435-.0009-.8208.29-.88.72l-2.5 18.3233c-.0616.4559.2567.8759.7134.9384.0384.005.0759.0075.1142.0075.4099 0 .7667-.3025.8241-.7208l2.4009-17.5941c2.8775.0725 4.8458.6191 5.8558 1.6275.6175.6159.9175 1.4409.9175 2.5208v13.3333c0 .46.3734.8333.8333.8333.46 0 .8333-.3733.8333-.8333V42.5c0-1.5242-.4733-2.7692-1.4066-3.7-1.43-1.4284-3.9509-2.1225-7.7059-2.1225Z"/>
  <path fill="#A0D405" d="M59.1667 11.6667H35.8333v-.8334c0-.46-.3733-.8333-.8333-.8333s-.8333.3733-.8333.8333v.8333H10.8333c-.46.0001-.8333.3734-.8333.8334v3.3333c0 .46.3733.8333.8333.8333h43.3333c.46 0 .8333-.3733.8333-.8333S54.6266 15 54.1666 15h-42.5v-1.6667h46.6667V15H57.5c-.46 0-.8333.3733-.8333.8333v20c0 .46.3733.8333.8333.8333s.8333-.3733.8333-.8333V16.6667h.8333c.46 0 .8333-.3733.8333-.8333V12.5c.0001-.46-.3732-.8333-.8332-.8333ZM54.1663 46.6667c-.46 0-.8333.3734-.8333.8333v11.6667c0 .46.3733.8333.8333.8333s.8333-.3733.8333-.8333V47.5c0-.4599-.3733-.8333-.8333-.8333ZM48.3334 38.3333c0-.9191-.7475-1.6667-1.6667-1.6667-.9191 0-1.6667.7475-1.6667 1.6667 0 .6142.3375 1.1458.8333 1.435v6.065c0 .46.3733.8333.8333.8333s.8333-.3733.8333-.8333v-6.065c.496-.2891.8335-.8208.8335-1.435Z"/>
  <path fill="#A0D405" d="M49.1666 25h-.8333c-.46 0-.8333.3733-.8333.8333s.3733.8333.8333.8333h.8333c.46 0 .8333-.3733.8333-.8333S49.6266 25 49.1666 25Z"/>
  <path fill="#A0D405" d="M48.3336 18.3333h-3.3333c-2.7575 0-5 2.2424-5 5v.2241c-.4975.2884-.8333.8266-.8333 1.4425v1.6667c0 .6283.35 1.1775.8658 1.4608.1583 1.6017.855 3.0116.8892 3.0783C41.677 32.7167 42.8187 35 46.667 35s4.99-2.2833 5.7458-3.7942c.0333-.0667.73-1.4766.8884-3.0783.5158-.2833.8658-.8325.8658-1.4608V25c0-.6159-.3358-1.1542-.8333-1.4425v-.2242c-.0001-2.7575-2.2426-5-5.0001-5Zm4.1667 8.3334c-.46 0-.8333.3733-.8333.8333 0 1.4417-.7384 2.9466-.7458 2.9608-.8675 1.735-1.6325 2.8725-4.2542 2.8725-2.6217 0-3.3866-1.1375-4.2542-2.8717-.0075-.0151-.7458-1.52-.7458-2.9616 0-.46-.3733-.8333-.8333-.8333V25c.46 0 .8333-.3734.8333-.8333v-.8334C41.667 21.495 43.162 20 45.0003 20h3.3333c1.8384 0 3.3333 1.4951 3.3333 3.3333v.8334c0 .4599.3733.8333.8333.8333v1.6667h.0001Z"/>
</svg>