<svg xmlns="http://www.w3.org/2000/svg" fill="none" viewBox="0 0 70 70">
  <path fill="#A0D405" d="M58.9408 56.9358H11.0592c-.5849 0-1.0592-.4743-1.0592-1.0593 0-.5849.4743-1.0592 1.0592-1.0592h47.8816c.5849 0 1.0592.4743 1.0592 1.0592 0 .585-.4743 1.0593-1.0592 1.0593Zm-1.9426-4.8278c-.585 0-1.0592-.4742-1.0592-1.0592V27.6421H29.5641c-.5849 0-1.0592-.4742-1.0592-1.0592 0-.5849.4743-1.0592 1.0592-1.0592h27.4342c.585 0 1.0592.4743 1.0592 1.0592v24.4658c-.0001.5851-.4742 1.0593-1.0593 1.0593Zm-36.7889 0c-.5849 0-1.0592-.4742-1.0592-1.0592V33.695c0-.585.4743-1.0592 1.0592-1.0592.585 0 1.0592.4742 1.0592 1.0592v17.3537c0 .5851-.4742 1.0593-1.0592 1.0593Zm32.2886-2.1085h-4.3142c-.5849 0-1.0592-.4742-1.0592-1.0592v-6.1609c0-.5849.4743-1.0592 1.0592-1.0592h4.3142c.5849 0 1.0592.4743 1.0592 1.0592v6.1609c0 .5851-.4743 1.0592-1.0592 1.0592Zm-3.255-2.1184h2.1958v-4.0425h-2.1958v4.0425Zm-5.3904 2.1184h-4.3142c-.5849 0-1.0592-.4742-1.0592-1.0592v-6.1609c0-.5849.4743-1.0592 1.0592-1.0592h4.3142c.5849 0 1.0592.4743 1.0592 1.0592v6.1609c0 .5851-.4743 1.0592-1.0592 1.0592Zm-3.255-2.1184h2.1958v-4.0425h-2.1958v4.0425Zm-5.3906 2.1184h-4.3143c-.5849 0-1.0592-.4742-1.0592-1.0592v-6.1609c0-.5849.4743-1.0592 1.0592-1.0592h4.3143c.585 0 1.0593.4743 1.0593 1.0592v6.1609c0 .5851-.4743 1.0592-1.0593 1.0592Zm-3.255-2.1184h2.1958v-4.0425h-2.1958v4.0425Zm-16.4275-2.2482c-.3449 0-.6831-.1683-.8865-.4782-.6591-1.0045-1.0304-2.1575-1.0817-3.3512C11.4025 40.6581 10 38.3779 10 35.9164c0-2.4613 1.4025-4.7416 3.556-5.8871.1508-3.5392 3.0774-6.3722 6.6533-6.3722 3.5758 0 6.5023 2.8329 6.6532 6.3721 2.1536 1.1454 3.5562 3.4257 3.5562 5.8871 0 2.4613-1.4027 4.7417-3.5563 5.8871-.0512 1.1879-.4195 2.3363-1.073 3.3377-.3196.4898-.976.6279-1.4658.3082-.4899-.3198-.628-.9759-.3083-1.4658.4808-.7368.7349-1.5899.7349-2.4672 0-.1005-.0037-.2028-.0113-.3127-.0318-.4609.2389-.8894.6688-1.0586 1.7301-.6809 2.8925-2.3804 2.8925-4.2287 0-1.8484-1.1624-3.548-2.8925-4.2288-.4299-.1692-.7007-.5975-.6688-1.0585.0076-.1099.0113-.2123.0113-.3128 0-2.5038-2.037-4.5408-4.5407-4.5408-2.5039 0-4.541 2.037-4.541 4.5408 0 .1013.0037.2064.0111.3122.0321.4612-.2386.8898-.6687 1.0591-1.7301.6811-2.8925 2.3804-2.8925 4.2289 0 1.8486 1.1624 3.548 2.8925 4.2288.4299.1692.7006.5975.6687 1.0585-.0075.1099-.0112.2123-.0112.3127 0 .8813.2562 1.7375.7407 2.4762.321.4891.1846 1.1458-.3045 1.4668-.1792.1174-.3808.1735-.5802.1735Zm36.9735-6.7119h-4.3142c-.5849 0-1.0592-.4743-1.0592-1.0592v-6.1609c0-.585.4743-1.0592 1.0592-1.0592h4.3142c.5849 0 1.0592.4742 1.0592 1.0592v6.1609c0 .5849-.4743 1.0592-1.0592 1.0592Zm-3.255-2.1184h2.1958v-4.0425h-2.1958v4.0425Zm-5.3904 2.1184h-4.3142c-.5849 0-1.0592-.4743-1.0592-1.0592v-6.1609c0-.585.4743-1.0592 1.0592-1.0592h4.3142c.5849 0 1.0592.4742 1.0592 1.0592v6.1609c0 .5849-.4743 1.0592-1.0592 1.0592Zm-3.255-2.1184h2.1958v-4.0425h-2.1958v4.0425Zm-5.3906 2.1184h-2.0062c-.585 0-1.0592-.4743-1.0592-1.0592 0-.585.4742-1.0592 1.0592-1.0592h.947v-4.0425h-.947c-.585 0-1.0592-.4743-1.0592-1.0592 0-.585.4742-1.0592 1.0592-1.0592h2.0062c.585 0 1.0593.4742 1.0593 1.0592v6.1609c0 .5849-.4743 1.0592-1.0593 1.0592Zm18.6813-15.3092c-.5849 0-1.0592-.4742-1.0592-1.0592v-7.4342H37.7739v7.4342c0 .585-.4742 1.0592-1.0592 1.0592-.5849 0-1.0592-.4742-1.0592-1.0592v-8.4934c0-.5849.4743-1.0592 1.0592-1.0592h17.1735c.585 0 1.0592.4743 1.0592 1.0592v8.4934c0 .5851-.4741 1.0592-1.0592 1.0592Zm-4.4063-1.7241c-.5849 0-1.0592-.4743-1.0592-1.0592v-2.0596c0-.585.4743-1.0593 1.0592-1.0593.585 0 1.0592.4743 1.0592 1.0593v2.0595c0 .585-.4742 1.0593-1.0592 1.0593Zm-4.1806 0c-.5849 0-1.0592-.4743-1.0592-1.0592v-2.0596c0-.585.4743-1.0593 1.0592-1.0593.585 0 1.0593.4743 1.0593 1.0593v2.0595c0 .585-.4743 1.0593-1.0593 1.0593Zm-4.1801 0c-.585 0-1.0592-.4743-1.0592-1.0592v-2.0596c0-.585.4742-1.0593 1.0592-1.0593.5849 0 1.0592.4743 1.0592 1.0593v2.0595c0 .585-.4743 1.0593-1.0592 1.0593Z"/>
</svg>