<svg xmlns="http://www.w3.org/2000/svg" fill="none" viewBox="0 0 73 70">
  <path fill="#A0D405" stroke="#A0D405" d="M28.4449 53.4417a.40931.40931 0 0 1-.282-.1124.40953.40953 0 0 1-.127-.2758.41037.41037 0 0 1 .1045-.2959.41077.41077 0 0 1 .2829-.1356l15.5745-.8198c.2307-.0048.4196.1626.4307.3884.0128.2265-.1616.4186-.3874.4314l-15.5746.8197h-.0216Zm0 2.4594a.40987.40987 0 0 1-.282-.1125.40953.40953 0 0 1-.127-.2758.41028.41028 0 0 1 .1045-.2958.41046.41046 0 0 1 .2829-.1357l15.5745-.8197a.40762.40762 0 0 1 .1587.0224.40657.40657 0 0 1 .1378.0817c.04.0362.0725.0799.0956.1286.023.0488.0362.1016.0386.1555.0128.2265-.1616.4187-.3874.4315l-15.5746.8198h-.0216Zm14.7556-4.9186H29.2647a.4097.4097 0 0 1-.1569-.0312.40628.40628 0 0 1-.133-.0888.41025.41025 0 0 1-.0889-.133.40997.40997 0 0 1-.0311-.1569v-2.541c-4.1108-2.569-6.5582-6.9648-6.5582-11.8051 0-7.6845 6.2516-13.9362 13.9362-13.9362 7.6834 0 13.9357 6.2516 13.9357 13.9362 0 4.8411-2.4481 9.2369-6.5582 11.8051v2.541a.41023.41023 0 0 1-.4098.4099Zm-13.526-.8198h13.1161v-2.36a.40797.40797 0 0 1 .0529-.2016.4074.4074 0 0 1 .1456-.1491c3.982-2.4009 6.3598-6.5967 6.3598-11.2256 0-7.2322-5.8842-13.1163-13.116-13.1163-7.2323 0-13.1164 5.8841-13.1164 13.1163 0 4.6273 2.3777 8.8238 6.3597 11.2256a.4074.4074 0 0 1 .1456.1491c.0348.0615.053.1309.0529.2016v2.36h-.0002ZM36.2328 60c-3.087 0-4.0173-1.7901-4.0557-1.8661a.41049.41049 0 0 1-.0222-.313.41051.41051 0 0 1 .2056-.237c.2026-.0992.4467-.02.5484.1802.032.0616.7766 1.4163 3.324 1.4163 2.5501 0 3.293-1.3587 3.3235-1.417.1041-.1986.3506-.2786.5508-.1762.2001.1025.2818.3458.181.5468-.0386.0759-.9688 1.866-4.0554 1.866ZM18.6075 36.6363h-8.1976a.4096.4096 0 0 1-.1569-.0311.40813.40813 0 0 1-.133-.0889.40813.40813 0 0 1-.0889-.133.40885.40885 0 0 1-.0311-.1569.40959.40959 0 0 1 .0311-.1569.41025.41025 0 0 1 .0889-.133.40785.40785 0 0 1 .133-.0888.40773.40773 0 0 1 .1569-.0311h8.1976a.4086.4086 0 0 1 .157.0311.40997.40997 0 0 1 .133.0888.41025.41025 0 0 1 .0889.133.41034.41034 0 0 1 .0311.1569.4096.4096 0 0 1-.0311.1569.40813.40813 0 0 1-.0889.133.41025.41025 0 0 1-.133.0889.41047.41047 0 0 1-.157.0311Zm43.4478 0h-8.1977a.4085.4085 0 0 1-.157-.031.41092.41092 0 0 1-.1331-.0888.41092.41092 0 0 1-.0888-.1331.4085.4085 0 0 1-.031-.157.408.408 0 0 1 .031-.1569.41092.41092 0 0 1 .0888-.1331.40775.40775 0 0 1 .1331-.0888.4085.4085 0 0 1 .157-.031h8.1977a.4098.4098 0 0 1 .2898.1201.4104.4104 0 0 1 .1201.2897.4098.4098 0 0 1-.1201.2898.41063.41063 0 0 1-.2898.1201ZM13.869 49.5478a.4092.4092 0 0 1-.2048-.0549.40973.40973 0 0 1-.1498-.15.40995.40995 0 0 1-.0516-.1515.40956.40956 0 0 1 .0103-.1597.40853.40853 0 0 1 .0707-.1436.408.408 0 0 1 .1202-.1056l7.1011-4.099c.1962-.112.4475-.0464.5596.1506.027.0466.0445.0981.0516.1515a.40956.40956 0 0 1-.0103.1597.41109.41109 0 0 1-.0707.1436.41108.41108 0 0 1-.1203.1056l-7.101 4.0988a.41292.41292 0 0 1-.205.0545Zm37.6285-21.724a.40964.40964 0 0 1-.3555-.205.40624.40624 0 0 1-.0516-.1516.40773.40773 0 0 1 .0105-.1597.40789.40789 0 0 1 .071-.1435.40945.40945 0 0 1 .1206-.1052l7.0979-4.0989c.1952-.1124.4467-.0468.5587.1502a.40982.40982 0 0 1-.1489.56l-7.0978 4.0988a.414.414 0 0 1-.2049.0549Zm-6.4509-6.4509a.40634.40634 0 0 1-.205-.0549.40838.40838 0 0 1-.1206-.1052.40981.40981 0 0 1-.0711-.1435.41204.41204 0 0 1-.0105-.1598.40995.40995 0 0 1 .0516-.1515l4.0973-7.0994c.1121-.1966.3618-.2642.5605-.1501.094.0545.1624.1441.1904.2491.0279.105.013.2169-.0415.3109l-4.0973 7.0994a.4079.4079 0 0 1-.1494.15.40756.40756 0 0 1-.2044.055Zm-8.8121-2.3633a.41047.41047 0 0 1-.157-.0311.41025.41025 0 0 1-.133-.0889.40813.40813 0 0 1-.0889-.133.40773.40773 0 0 1-.0311-.1569l-.0008-8.1962A.40992.40992 0 0 1 36.2336 10a.40997.40997 0 0 1 .4099.4035l.0008 8.1962c0 .1087-.0432.213-.1201.2898a.40956.40956 0 0 1-.2897.1201Zm-8.8127 2.3616a.40835.40835 0 0 1-.2049-.0547.40802.40802 0 0 1-.1497-.1503l-4.0989-7.0977a.41012.41012 0 0 1-.0517-.1515.40917.40917 0 0 1 .0103-.1596c.014-.052.038-.1008.0708-.1435a.40772.40772 0 0 1 .1203-.1054.40751.40751 0 0 1 .1514-.0515.40858.40858 0 0 1 .1595.0104c.052.014.1007.038.1434.0708a.4092.4092 0 0 1 .1053.1204l4.0989 7.0978a.40839.40839 0 0 1 .0553.2049.40983.40983 0 0 1-.0547.2051.40957.40957 0 0 1-.1502.1501.4088.4088 0 0 1-.2051.0547Zm31.1751 28.175a.41028.41028 0 0 1-.2049-.0543l-7.0994-4.099a.40853.40853 0 0 1-.1206-.1053.4092.4092 0 0 1-.071-.1436.40835.40835 0 0 1-.0105-.1598.4091.4091 0 0 1 .0516-.1517.41047.41047 0 0 1 .249-.1911.41069.41069 0 0 1 .3114.0406l7.0994 4.0989c.094.0547.1624.1444.1904.2494.0279.1051.013.217-.0415.3111a.40839.40839 0 0 1-.1494.1499.4081.4081 0 0 1-.2045.0549ZM20.9701 27.8206a.40966.40966 0 0 1-.205-.0549l-7.0986-4.0973a.41041.41041 0 0 1-.1203-.1054.40917.40917 0 0 1-.081-.3031.40995.40995 0 0 1 .0516-.1515c.1129-.1961.3642-.2622.5596-.1501l7.0986 4.0973a.41041.41041 0 0 1 .1203.1054.40976.40976 0 0 1 .0707.1435.40968.40968 0 0 1 .0103.1597.40947.40947 0 0 1-.0516.1514.41.41 0 0 1-.1498.1501.4092.4092 0 0 1-.2048.0549Z"/>
  <path fill="#A0D405" stroke="#A0D405" d="M34.1829 44.4235a2.44709 2.44709 0 0 1-.9412-.1857 2.44633 2.44633 0 0 1-.7976-.5333c-.9591-.9583-.9582-2.5193.0009-3.4784a.40877.40877 0 0 1 .1329-.0889.4098.4098 0 0 1 .1569-.0313c.0538 0 .1071.0107.1568.0313a.40877.40877 0 0 1 .1329.0889c.0381.038.0683.0832.089.1329.0206.0497.0312.103.0312.1568s-.0106.1071-.0312.1569a.41171.41171 0 0 1-.089.1329c-.6396.6396-.6396 1.6796-.0008 2.3192.6381.6382 1.6788.6389 2.3201 0 .3034-.3042.4748-.7069.4803-1.1336.0032-.2265.1769-.4187.4155-.4042.0539.0007.1071.012.1565.0333.0495.0212.0943.052.1318.0906a.40992.40992 0 0 1 .087.1343c.0199.05.0298.1034.029.1573-.0088.6413-.265 1.2449-.7205 1.7012-.4796.4803-1.1105.7198-1.7405.7198Zm-2.4577-10.5283c-1.3562 0-2.4593-1.1027-2.4593-2.4586 0-1.3565 1.1031-2.46 2.4593-2.46a2.45696 2.45696 0 0 1 1.6331.618.40973.40973 0 0 1 .137.2823.41018.41018 0 0 1-.1025.2965.41123.41123 0 0 1-.2823.1367.41126.41126 0 0 1-.2966-.1023 1.63647 1.63647 0 0 0-1.0887-.4115c-.9038 0-1.6396.7358-1.6396 1.6403 0 .9035.7357 1.6388 1.6396 1.6388.0538 0 .1072.0105.1569.0311a.41025.41025 0 0 1 .133.0889c.0381.038.0683.0832.0889.133.0205.0497.0311.103.0311.1569 0 .0538-.0106.1071-.0311.1569a.41025.41025 0 0 1-.0889.133.40813.40813 0 0 1-.133.0889.4081.4081 0 0 1-.1569.0311Zm-2.5426 4.6881a.4209.4209 0 0 1-.1634-.0336 1.6392 1.6392 0 0 1-.9831-1.5026c0-.9046.7358-1.6403 1.6396-1.6403.2266 0 .4099.1833.4099.4098 0 .2266-.1833.4099-.4099.4099-.4523 0-.8198.3682-.8198.8206a.81719.81719 0 0 0 .4899.7501.40946.40946 0 0 1 .1314.0912.41029.41029 0 0 1 .0865.1346.4102.4102 0 0 1-.0058.3138.4085.4085 0 0 1-.1507.1795.40829.40829 0 0 1-.2246.067Z"/>
  <path fill="#A0D405" stroke="#A0D405" d="M29.6764 36.2264c-1.1303 0-2.0494-.9186-2.0494-2.0478.0008-1.2742 1.2144-2.2693 2.4793-2.0062a.40957.40957 0 0 1 .2589.1767.40996.40996 0 0 1 .0582.308.41098.41098 0 0 1-.0621.1477.40839.40839 0 0 1-.1142.1123.40702.40702 0 0 1-.1487.0596.40753.40753 0 0 1-.1602-.0022c-.7613-.1569-1.4914.4391-1.4914 1.2041 0 .6772.5516 1.228 1.2297 1.228.2265 0 .4099.1834.4099.4099 0 .2265-.1835.4099-.41.4099Zm4.9186-4.9187c-1.1304 0-2.0494-.9186-2.0494-2.0478 0-1.1308.919-2.051 2.0494-2.051 1.1304 0 2.0495.9202 2.0495 2.051 0 .0538-.0106.1071-.0312.1569a.41157.41157 0 0 1-.0888.133.41157.41157 0 0 1-.133.0888.40847.40847 0 0 1-.1569.0311.4081.4081 0 0 1-.1569-.0311.40933.40933 0 0 1-.1331-.0888.41157.41157 0 0 1-.0888-.133.41044.41044 0 0 1-.0312-.1569c0-.6789-.5516-1.2313-1.2297-1.2313-.678 0-1.2296.5524-1.2296 1.2313 0 .6772.5516 1.2281 1.2296 1.2281a.4081.4081 0 0 1 .1569.0311c.0498.0205.095.0507.1331.0888.038.0381.0682.0833.0888.133a.41044.41044 0 0 1 .0312.1569.4096.4096 0 0 1-.253.3788.4081.4081 0 0 1-.1569.0311Zm-2.8635 11.4785c-.863 0-1.706-.3426-2.3257-.9615-1.2784-1.2785-1.2776-3.3591.0016-4.6384.6197-.6204 1.4427-.9615 2.317-.9615h.0008c.8742 0 1.698.3411 2.3191.9623a.41106.41106 0 0 1 .089.133c.0206.0497.0312.103.0312.1568a.4097.4097 0 0 1-.0312.1569.41064.41064 0 0 1-.089.1329.40877.40877 0 0 1-.1329.0889.4098.4098 0 0 1-.1569.0313.40967.40967 0 0 1-.1568-.0313.41025.41025 0 0 1-.133-.0889c-.4658-.4659-1.084-.7221-1.7395-.7221h-.0008c-.6549 0-1.2721.2562-1.7373.7213-.9598.9598-.9606 2.521-.0016 3.4794.5548.5539 1.349.8149 2.1207.6923.2202-.0303.4339.1186.4684.3419a.41122.41122 0 0 1-.0744.3047.41047.41047 0 0 1-.2675.1636 3.29863 3.29863 0 0 1-.5012.0384Zm6.5538 1.6381c-.6309 0-1.2605-.2403-1.7401-.7198-.4554-.4572-.7117-1.0607-.7205-1.7021a.41104.41104 0 0 1 .029-.1573.4108.4108 0 0 1 .0871-.1342.40921.40921 0 0 1 .1318-.0907.41094.41094 0 0 1 .1565-.0333c.2297-.008.4115.1777.4155.4043.0056.4267.1769.8294.4799 1.1343.6421.6389 1.6828.6389 2.3201-.0008.6387-.6397.6387-1.6796 0-2.3193-.1602-.16-.1602-.4194 0-.5794.1601-.1601.4195-.1602.5796 0 .9591.9591.9591 2.5201 0 3.4784-.4788.4796-1.1097.7199-1.7389.7199Zm2.4576-10.5291a.41023.41023 0 0 1-.4098-.4099.41058.41058 0 0 1 .1201-.2897c.0768-.0768.181-.12.2897-.1201.9046 0 1.6396-.7354 1.6396-1.6388 0-.9046-.735-1.6403-1.6396-1.6403a1.63766 1.63766 0 0 0-1.0887.4115c-.1696.1493-.4292.1348-.5781-.0345a.41093.41093 0 0 1-.1026-.2963.4108.4108 0 0 1 .1363-.2824 2.45875 2.45875 0 0 1 1.6331-.6181c1.3563 0 2.4593 1.1036 2.4593 2.4601.0001 1.3557-1.103 2.4585-2.4593 2.4585Zm2.5426 4.6881c-.1568 0-.309-.092-.3746-.2465a.40856.40856 0 0 1-.0345-.1563.40814.40814 0 0 1 .0281-.1575.40883.40883 0 0 1 .0864-.1347.40911.40911 0 0 1 .1315-.0911.81715.81715 0 0 0 .3568-.302.81692.81692 0 0 0 .133-.4482c0-.4523-.3666-.8205-.8197-.8205a.41023.41023 0 0 1-.4099-.4099.41023.41023 0 0 1 .4099-.4099c.9046 0 1.6395.7358 1.6395 1.6403a1.6395 1.6395 0 0 1-.2675.898c-.1746.2669-.4233.477-.7156.6046a.421.421 0 0 1-.1634.0337Z"/>
  <path fill="#A0D405" stroke="#A0D405" d="M42.7919 36.2265a.41023.41023 0 0 1-.2897-.1201.4098.4098 0 0 1-.1201-.2898c0-.1087.0432-.2129.1201-.2897a.40939.40939 0 0 1 .2897-.1201c.6789 0 1.2296-.5508 1.2296-1.2281 0-.7654-.7284-1.3634-1.4906-1.2041a.40702.40702 0 0 1-.3089-.0572.40877.40877 0 0 1-.1142-.1124.40702.40702 0 0 1-.062-.1478.40996.40996 0 0 1 .0582-.308.40995.40995 0 0 1 .2589-.1767c1.2681-.2629 2.4785.7322 2.4785 2.0062-.0001 1.1292-.9191 2.0478-2.0495 2.0478Zm-4.9187-4.9187a.41058.41058 0 0 1-.2897-.1201.41063.41063 0 0 1-.1201-.2898.41058.41058 0 0 1 .1201-.2897.41058.41058 0 0 1 .2897-.1201c.6789 0 1.2297-.5508 1.2297-1.2281 0-.6789-.5508-1.2313-1.2297-1.2313-.6772 0-1.2292.5524-1.2292 1.2313a.40847.40847 0 0 1-.0311.1569.41025.41025 0 0 1-.0889.133.40944.40944 0 0 1-.133.0888.40957.40957 0 0 1-.1568.0312.41057.41057 0 0 1-.157-.0312.40838.40838 0 0 1-.133-.0888.41025.41025 0 0 1-.0889-.133.40997.40997 0 0 1-.0311-.1569c0-1.1308.919-2.051 2.049-2.051 1.1304 0 2.0494.9202 2.0494 2.051 0 1.1292-.919 2.0478-2.0494 2.0478Zm2.8628 11.4785a3.30203 3.30203 0 0 1-.4995-.0383.41183.41183 0 0 1-.2679-.1635.41195.41195 0 0 1-.0748-.3049c.0353-.2241.2483-.3762.4691-.3418.7734.1225 1.566-.1385 2.12-.6932.9591-.9576.9591-2.5188-.0017-3.4786-.4642-.465-1.0823-.7213-1.7372-.7213-.6564 0-1.2744.2563-1.7404.7221-.1602.1602-.4195.1602-.5796 0-.1601-.1601-.1602-.4195 0-.5796.6213-.6212 1.4459-.9622 2.32-.9622.8742 0 1.6972.341 2.3169.9614 1.2794 1.2794 1.2809 3.36.0016 4.6385-.6197.6188-1.4618.9614-2.3265.9614Zm.8247 15.5743H30.904a.4097.4097 0 0 1-.1569-.0312.41064.41064 0 0 1-.1329-.089l-1.6396-1.6395a.40877.40877 0 0 1-.0889-.1329.41044.41044 0 0 1-.0312-.1569v-5.7384a.4096.4096 0 0 1 .0311-.1569.40813.40813 0 0 1 .0889-.133.40813.40813 0 0 1 .133-.0889.4096.4096 0 0 1 .1569-.0311h13.9358a.4104.4104 0 0 1 .2897.1201.4098.4098 0 0 1 .1201.2898v5.7384c0 .0538-.0106.1071-.0312.1569a.41008.41008 0 0 1-.0888.1329l-1.6395 1.6395a.41025.41025 0 0 1-.133.0889.4078.4078 0 0 1-.1568.0313Zm-10.487-.8199H41.391l1.3993-1.3993v-5.1588H29.6742v5.1588l1.3995 1.3993Z"/>
  <path fill="#A0D405" stroke="#A0D405" d="M36.2342 42.4068a.41186.41186 0 0 1-.1569-.0311.40961.40961 0 0 1-.2219-.2219.41007.41007 0 0 1-.0312-.1569V29.26a.4097.4097 0 0 1 .0312-.1569.40944.40944 0 0 1 .2219-.2219.40997.40997 0 0 1 .1569-.0311c.0538 0 .1071.0106.1569.0311a.41025.41025 0 0 1 .133.0889.4105.4105 0 0 1 .0888.133.4097.4097 0 0 1 .0312.1569v12.7369c0 .0538-.0106.1071-.0312.1569a.41157.41157 0 0 1-.0888.133.40997.40997 0 0 1-.133.0888.41044.41044 0 0 1-.1569.0312Z"/>
  <path fill="#A0D405" stroke="#A0D405" d="M37.4621 39.5057c-1.0619 0-1.5736-1.0039-1.5944-1.0472a.4096.4096 0 0 1-.0226-.3128.40925.40925 0 0 1 .2052-.2372.40957.40957 0 0 1 .3128-.0226c.1031.0342.1885.108.2372.2052.0048.0088.3131.5948.8618.5948a.4099.4099 0 0 1 .2897.1202.4099.4099 0 0 1 .1202.2897.4099.4099 0 0 1-.1202.2897.4099.4099 0 0 1-.2897.1202Z"/>
  <path fill="#A0D405" stroke="#A0D405" d="M35.0026 39.5055a.4076.4076 0 0 1-.1568-.0311.40813.40813 0 0 1-.133-.0889.40813.40813 0 0 1-.0889-.133.4076.4076 0 0 1-.0311-.1568.40773.40773 0 0 1 .0311-.1569.41092.41092 0 0 1 .0888-.1331.41157.41157 0 0 1 .133-.0888.40847.40847 0 0 1 .1569-.0311c.5492 0 .8582-.5892.8614-.5949.1033-.1993.3499-.281.5501-.1802.2009.1025.2834.3459.1824.5476-.0207.0433-.5323 1.0472-1.5939 1.0472Zm3.2795-4.9187c-1.9441 0-2.4572-1.3405-2.4572-2.0494a.40986.40986 0 0 1 .1209-.2864.41028.41028 0 0 1 .2872-.1192.41025.41025 0 0 1 .2882.1167c.077.0752.1214.1777.1235.2853.0024.1264.068 1.2333 1.6375 1.2333a.41063.41063 0 0 1 .2898.1201c.0768.0769.12.1811.1201.2898a.4099.4099 0 0 1-.1202.2897.40962.40962 0 0 1-.2898.1201Z"/>
  <path fill="#A0D405" stroke="#A0D405" d="M34.1823 34.5869a.4076.4076 0 0 1-.1568-.0311.40961.40961 0 0 1-.2219-.2219.4076.4076 0 0 1-.0311-.1568.40773.40773 0 0 1 .0311-.1569.40944.40944 0 0 1 .2219-.2219.40947.40947 0 0 1 .1568-.0311c1.5692 0 1.6348-1.1072 1.6373-1.2333.004-.2254.1784-.4219.4138-.4043a.40848.40848 0 0 1 .2872.1202c.076.0765.1187.1799.1187.2878 0 .7088-.5132 2.0493-2.457 2.0493Z"/>
</svg>